<?xml version="1.0" encoding="UTF-8"?>
<svg version="1.1" xmlns="http://www.w3.org/2000/svg" width="1200" height="630">
<path d="M0 0 C396 0 792 0 1200 0 C1200 207.9 1200 415.8 1200 630 C804 630 408 630 0 630 C0 422.1 0 214.2 0 0 Z " fill="#F8F8F8" transform="translate(0,0)"/>
<path d="M0 0 C57.42 0 114.84 0 174 0 C177.0205293 9.0615879 177.14954312 17.95960477 177.14044189 27.44467163 C177.14341302 28.4356402 177.14638414 29.42660877 177.1494453 30.44760668 C177.15805017 33.73640154 177.15963353 37.02515966 177.16113281 40.31396484 C177.16576689 42.68542558 177.17079233 45.05688558 177.17617798 47.42834473 C177.19061028 54.519214 177.19667945 61.61007543 177.20157349 68.70095676 C177.20416127 72.05342215 177.20795039 75.40588611 177.21169281 78.75835037 C177.2238767 89.92434474 177.23417717 101.09033725 177.2375679 112.25633812 C177.23789725 113.32573014 177.23789725 113.32573014 177.23823325 114.41672603 C177.23845153 115.13121959 177.23866981 115.84571316 177.2388947 116.58185804 C177.23933814 118.02934416 177.23978471 119.47683028 177.24023438 120.92431641 C177.24056652 122.00128786 177.24056652 122.00128786 177.24090537 123.10001631 C177.24484635 134.71197379 177.26228288 146.32386825 177.2855939 157.93580143 C177.30941462 169.89969484 177.32177463 181.86355677 177.32293582 193.82747424 C177.32384668 200.52771529 177.32977571 207.22786177 177.34775543 213.92808151 C177.36436489 220.24010572 177.36632978 226.55197526 177.35761642 232.86401367 C177.35685284 235.16438845 177.3610977 237.464772 177.37107468 239.76512527 C177.50054336 271.51028858 173.12603562 301.21359161 150.29052734 324.90307617 C110.9545902 364.19156982 50.95957562 353 0 353 C0 236.51 0 120.02 0 0 Z " fill="#521986" transform="translate(637,176)"/>
<path d="M0 0 C56.76 0 113.52 0 172 0 C172 116.16 172 232.32 172 352 C53.48888889 352 53.48888889 352 27 328 C26.16984375 327.26265625 25.3396875 326.5253125 24.484375 325.765625 C14.73331703 316.61279145 7.90173324 305.40994369 3 293 C2.71640625 292.30132812 2.4328125 291.60265625 2.140625 290.8828125 C-2.56833785 278.14939254 -4.15731515 263.666669 -4.13371277 250.17510986 C-4.13597833 249.21458387 -4.13824388 248.25405788 -4.14057809 247.26442504 C-4.14688453 244.06071107 -4.14609086 240.85703978 -4.14526367 237.65332031 C-4.14825742 235.34964443 -4.15166045 233.04596904 -4.15544128 230.74229431 C-4.1642676 224.49162183 -4.16661894 218.24096304 -4.16725707 211.99028492 C-4.16796882 208.07772747 -4.17010561 204.16517347 -4.17275429 200.25261688 C-4.18152888 187.28619881 -4.18617455 174.31979041 -4.18542381 161.3533695 C-4.18538386 160.65522925 -4.1853439 159.95708899 -4.18530273 159.23779297 C-4.18526185 158.53878749 -4.18522097 157.83978201 -4.18517885 157.11959454 C-4.18477341 145.82041203 -4.19431799 134.521263 -4.2084411 123.22209015 C-4.22286757 111.58712974 -4.22952539 99.95218711 -4.22884732 88.31721759 C-4.22859356 81.79863406 -4.23137653 75.28008838 -4.24202538 68.76151276 C-4.25178604 62.61863453 -4.25173152 56.47582967 -4.24450874 50.33294868 C-4.24347244 48.09343673 -4.24576815 45.85392001 -4.2518692 43.61441612 C-4.2790614 32.93024907 -4.12252634 22.33648638 -3.1098175 11.69378662 C-3.03228625 10.85666586 -2.95475499 10.0195451 -2.87487429 9.15705705 C-2.47232319 5.41541364 -2.1204699 3.18070486 0 0 Z " fill="#723EA3" transform="translate(390,177)"/>
</svg>
