<?xml version="1.0" encoding="UTF-8"?>
<svg version="1.1" xmlns="http://www.w3.org/2000/svg" width="2907" height="1573">
<path d="M0 0 C6.84223548 5.51160746 13.02102697 11.87920972 19.21337891 18.09985352 C20.07315338 18.95948196 20.93292786 19.81911041 21.8187561 20.70478821 C24.14222025 23.02882351 26.4634727 25.3550391 28.78369951 27.68230557 C31.22152252 30.12644368 33.66223918 32.56768896 36.10263062 35.00926208 C40.70838971 39.61811071 45.31159711 44.22949896 49.91385877 48.84183973 C55.15987202 54.09908858 60.40877606 59.35344725 65.65790677 64.60758317 C76.44179003 75.40187688 87.22209619 86.19973571 98 97 C97.5868605 97.61941467 97.17372101 98.23882935 96.74806213 98.87701416 C96.20673141 99.68878113 95.6654007 100.5005481 95.10766602 101.33691406 C94.57077652 102.14195374 94.03388702 102.94699341 93.48072815 103.77642822 C81.3152399 122.04503231 75.915447 141.55003162 79.65234375 163.4296875 C83.64850754 182.5654724 94.86116614 199.27333959 111.15234375 210.09375 C128.87805196 221.02760117 149.29740574 225.11090252 169.75 220.4375 C180.74818897 217.68953861 190.6002588 212.83829231 199.1328125 205.28515625 C201 204 201 204 205 204 C206.96466827 205.46130371 206.96466827 205.46130371 209.06066895 207.55273438 C209.8597316 208.34051773 210.65879425 209.12830109 211.48207092 209.93995667 C212.3497258 210.81570847 213.21738068 211.69146027 214.11132812 212.59375 C215.49245033 213.96435829 215.49245033 213.96435829 216.901474 215.36265564 C219.42945818 217.87237683 221.94459125 220.39462205 224.45711327 222.91981125 C227.09046775 225.56329008 229.73356515 228.1969979 232.37512207 230.83227539 C236.81411227 235.26398244 241.24459104 239.70406785 245.67041016 244.14892578 C250.77754432 249.27777631 255.89885607 254.39212989 261.02787638 259.49908638 C265.43538896 263.88839985 269.8349989 268.28552021 274.22819662 272.6891613 C276.84993416 275.31711592 279.47425351 277.94233914 282.10572815 280.56054688 C285.0449634 283.48599795 287.96746068 286.42764458 290.88867188 289.37109375 C291.75632675 290.2306517 292.62398163 291.09020966 293.51792908 291.97581482 C300.52726415 299.08409128 305.02953044 305.90830944 305.3125 316.125 C305.14496502 325.15992225 302.3221044 330.86436621 296.18485546 337.45564556 C295.70286889 337.97356139 295.22088231 338.49147721 294.72429008 339.02508746 C288.74084018 345.4111281 282.54793688 351.59071271 276.35481262 357.77217102 C275.00612502 359.12201335 273.65765507 360.47207318 272.30938166 361.82232922 C268.63500098 365.50085468 264.95754446 369.17629119 261.27953589 372.85118878 C257.30159666 376.82685432 253.32654981 380.80541008 249.35112 384.78358459 C241.57621982 392.56291994 233.7986326 400.3395634 226.02006272 408.11522923 C219.69799795 414.43503176 213.37691459 420.75581436 207.05652428 427.07729149 C205.70507289 428.42897273 205.70507289 428.42897273 204.32631945 429.80796066 C202.49583795 431.6387619 200.66535868 433.46956538 198.83488163 435.30037107 C182.17995056 451.95806905 165.5222055 468.6129498 148.86326865 485.26664145 C133.66689212 500.45826967 118.47310715 515.65248525 103.28149414 530.84887695 C86.19296903 547.94275955 69.10281702 565.03501228 52.01007766 582.12468117 C50.18739249 583.9470478 48.3647094 585.76941652 46.54202843 587.59178734 C45.64529904 588.48836245 44.74856966 589.38493756 43.82466665 590.30868161 C37.51001933 596.62246603 31.19653205 602.93740901 24.88349342 609.2528019 C17.19161552 616.94748532 9.49795649 624.64038251 1.80201391 632.33100066 C-2.12325108 636.2536393 -6.04771549 640.17707001 -9.97001266 644.10267639 C-13.56197819 647.69762659 -17.15625322 651.29025092 -20.7523661 654.88105228 C-22.05115679 656.17872809 -23.34911013 657.47724264 -24.6461282 658.77669016 C-36.38473507 670.53559285 -36.38473507 670.53559285 -42.4317444 675.66662949 C-44.91011897 677.77380613 -47.25454457 680.02300153 -49.625 682.25 C-56.11013446 688.2421731 -62.94837485 693.69221071 -70 699 C-70.67272949 699.50789062 -71.34545898 700.01578125 -72.03857422 700.5390625 C-132.27974941 745.73733855 -208.38813758 774.88634616 -284.21875 775.203125 C-285.91145271 775.21364647 -285.91145271 775.21364647 -287.63835144 775.22438049 C-291.25894203 775.24178561 -294.87936911 775.24823254 -298.5 775.25 C-299.73642242 775.25067474 -300.97284485 775.25134949 -302.24673462 775.25204468 C-320.05202715 775.23658305 -337.3968327 774.85745614 -355 772 C-356.65781494 771.75056641 -356.65781494 771.75056641 -358.34912109 771.49609375 C-418.85534777 762.31431423 -478.92746704 738.42200211 -527.20166016 700.41308594 C-529.02312122 698.98183198 -530.8592189 697.5713783 -532.69921875 696.1640625 C-539.16163256 691.19350747 -545.33908285 686.04715747 -551.3046875 680.484375 C-553.41752596 678.53688912 -555.55575757 676.65023833 -557.73106384 674.77460384 C-561.63609789 671.36171611 -565.34109353 667.79705414 -568.99829102 664.1219635 C-569.65441124 663.4666977 -570.31053146 662.8114319 -570.98653412 662.13630956 C-573.16136838 659.96310861 -575.33263408 657.78637857 -577.50390625 655.60961914 C-579.07135387 654.04188916 -580.6390223 652.47437991 -582.20689392 650.90707397 C-586.44612996 646.66812399 -590.68228295 642.42610521 -594.9178772 638.18351674 C-599.35100804 633.74412048 -603.78698454 629.30756954 -608.22265625 624.87071228 C-615.66193255 617.42868437 -623.09946265 609.98491465 -630.53564453 602.53979492 C-638.19169269 594.87455428 -645.84880046 587.21037467 -653.50732422 579.54760742 C-653.98015473 579.07451419 -654.45298524 578.60142096 -654.94014394 578.11399157 C-657.31242895 575.74040144 -659.68473467 573.36683202 -662.0570507 570.9932729 C-681.70786798 551.33201249 -701.35511331 531.66718593 -721 512 C-720.67 511.34 -720.34 510.68 -720 510 C-718.95380493 510.21148682 -718.95380493 510.21148682 -717.88647461 510.42724609 C-658.90514718 522.21096544 -599.90145612 517.72136678 -545 492 C-544.28166992 491.66500488 -543.56333984 491.33000977 -542.82324219 490.98486328 C-522.998505 481.63997895 -504.87527221 469.97157725 -488 456 C-487.04182416 455.2119194 -486.08364833 454.4238388 -485.09643686 453.61187696 C-474.67636725 444.92529121 -465.15136977 435.41478454 -455.59024048 425.80383301 C-453.76113305 423.97273016 -451.93157585 422.1420765 -450.1016115 420.31183004 C-446.1440785 416.35229694 -442.19022876 412.38911675 -438.23885727 408.42343521 C-432.36309666 402.52645624 -426.48144324 396.6353807 -420.59853583 390.74553248 C-410.69791789 380.83298573 -400.80168983 370.91606787 -390.9077034 360.99690247 C-376.77514799 346.8285927 -362.63408513 332.66879272 -348.4912887 318.51070648 C-342.80969992 312.82290072 -337.12838504 307.13482136 -331.44707298 301.4467392 C-330.81602151 300.81493819 -330.18497005 300.18313718 -329.53479581 299.53219068 C-314.53462482 284.51409853 -299.53715951 269.49330552 -284.54052734 254.47167969 C-283.88481335 253.81487689 -283.22909936 253.15807409 -282.55351525 252.48136818 C-267.24331531 237.14570026 -251.93440335 221.80874801 -236.62768555 206.46960449 C-235.96854945 205.80907402 -235.30941336 205.14854355 -234.63030345 204.46799701 C-231.30620291 201.13686061 -227.98211125 197.80571535 -224.65801995 194.47456974 C-224.00099133 193.81614756 -223.34396271 193.15772538 -222.66702413 192.47935101 C-221.34086747 191.15038084 -220.01471233 189.82140916 -218.6885587 188.49243597 C-196.78561664 166.54300983 -174.87589347 144.60037087 -152.95867542 122.66519948 C-149.86514268 119.56911363 -146.77170219 116.47293563 -143.67832565 113.37669373 C-143.06956353 112.76736891 -142.46080141 112.15804409 -141.83359195 111.53025489 C-132.03514729 101.72229536 -122.24413016 91.90695315 -112.45605349 82.08864776 C-102.62709414 72.22956363 -92.79110106 62.37754378 -82.94777854 52.53279942 C-77.09963948 46.68335195 -71.25720738 40.82833424 -65.42272653 34.96526277 C-61.06881049 30.59123226 -56.70454594 26.22766939 -52.33613686 21.86811584 C-50.56844245 20.1007247 -48.8041559 18.32991734 -47.04359515 16.55541998 C-44.65423889 14.14812627 -42.25290753 11.75344784 -39.84815407 9.36154938 C-39.16405136 8.66636692 -38.47994865 7.97118446 -37.77511555 7.25493586 C-27.63294589 -2.75455254 -13.28226581 -6.98188513 0 0 Z " fill="#28255F" transform="translate(904,3)"/>
<path d="M0 0 C63.69 0 127.38 0 193 0 C193.02187378 21.36717773 193.02187378 21.36717773 193.04418945 43.16601562 C193.07679394 73.64588286 193.11327445 104.12574028 193.15898132 134.60559082 C193.15997689 135.27018776 193.16097246 135.93478471 193.16199819 136.61952095 C193.18365925 151.06473789 193.20598212 165.50995372 193.22898628 179.95516858 C193.24026431 187.03961089 193.25139616 194.12405343 193.26245117 201.20849609 C193.26355374 201.91346454 193.2646563 202.61843299 193.26579228 203.34476412 C193.30142901 226.17427806 193.32742296 249.00379053 193.34838969 271.83332226 C193.36999584 295.30341434 193.40138347 318.77347365 193.44499113 342.24353564 C193.47305986 357.36152416 193.49260883 372.47946659 193.49934604 387.59748006 C193.50460892 397.5124449 193.5208562 407.42735417 193.54566566 417.34228921 C193.55964968 423.05960074 193.56886302 428.77681284 193.56500816 434.49414253 C193.56158073 439.73669616 193.57206145 444.97903796 193.59323552 450.22154826 C193.59847403 452.11010387 193.5987695 453.99868166 193.59339563 455.88723689 C193.54522251 474.74997348 194.67832737 494.53142914 208.4609375 508.8671875 C219.40573059 518.06081369 233.44586368 518.00553225 247 517 C256.74443466 515.1992861 264.49671398 510.86470939 270.25 502.75 C278.03616683 490.13979502 280.15908691 476.13777976 280.1386652 461.55240536 C280.14150742 460.74848513 280.14434964 459.9445649 280.14727798 459.11628345 C280.15556726 456.43574231 280.15688863 453.75524471 280.15821838 451.07469177 C280.16278767 449.12826708 280.16778823 447.18184335 280.17318195 445.23542076 C280.18673072 439.89701736 280.19417196 434.55862031 280.20060861 429.22020423 C280.20862691 423.45956485 280.22231976 417.69893862 280.23532104 411.93830872 C280.25706352 401.96099193 280.27521616 391.98367379 280.29092598 382.00634575 C280.31364491 367.58082851 280.34178494 353.15532584 280.37124526 338.72982097 C280.41889636 315.32501404 280.4621757 291.92020116 280.50268555 268.51538086 C280.54204596 245.78067561 280.58347103 223.04597565 280.62768555 200.3112793 C280.62904808 199.61025675 280.63041061 198.90923421 280.63181442 198.18696856 C280.64550003 191.1468871 280.65922754 184.10680572 280.67298577 177.0667244 C280.70101085 162.72580359 280.72875622 148.38488225 280.7563324 134.04396057 C280.75886516 132.72691214 280.76139793 131.40986372 280.76400744 130.05290473 C280.84725129 86.70194465 280.92345557 43.35097245 281 0 C344.69 0 408.38 0 474 0 C474.09924427 89.19871599 474.09924427 89.19871599 474.12702942 133.55740356 C474.12744359 134.21810574 474.12785776 134.87880792 474.12828448 135.55953138 C474.13726679 149.92429068 474.14557682 164.28905029 474.15319599 178.65381037 C474.15693744 185.70003381 474.16082718 192.74625716 474.16479492 199.79248047 C474.1651872 200.49360041 474.16557948 201.19472036 474.16598364 201.91708636 C474.17872857 224.57230002 474.20123296 247.22749099 474.22889166 269.88269094 C474.25811189 293.86093839 474.27601379 317.83917166 474.28226548 341.81743634 C474.28636173 356.15561541 474.29925272 370.49372924 474.3237494 384.83188821 C474.33972765 394.69229744 474.34437332 404.55267342 474.34050413 414.41309462 C474.33860119 420.0840475 474.34131236 425.75488717 474.35761642 431.4258194 C474.56485111 507.40289313 466.61114433 588.97301324 411 646 C385.278951 671.80006912 351.00428273 686.00655794 316 694 C314.71754395 694.29366455 314.71754395 694.29366455 313.40917969 694.59326172 C289.33518303 699.95396303 264.74882645 701.51765566 240.14282227 701.39111328 C236.43403476 701.37498493 232.7263339 701.39111571 229.01757812 701.41015625 C167.93157069 701.46448488 104.42914769 687.18848581 59.875 642.9453125 C0.5803069 582.06100069 -0.19543704 488.2130308 -0.11606562 408.82188284 C-0.11169157 403.31923853 -0.11321241 397.81659515 -0.1139679 392.31394958 C-0.11448878 382.81167122 -0.11138785 373.3093998 -0.10573006 363.80712318 C-0.09755552 350.06892429 -0.09499378 336.33072871 -0.09374207 322.59252765 C-0.09156084 300.29581419 -0.08493479 277.99910396 -0.07543945 255.70239258 C-0.06623384 234.06079121 -0.05916065 212.41919083 -0.05493164 190.77758789 C-0.05473435 189.77442696 -0.05473435 189.77442696 -0.05453308 188.75100015 C-0.05321439 182.03401993 -0.0519386 175.31703969 -0.05069422 168.60005946 C-0.0402786 112.4000363 -0.02181613 56.20002011 0 0 Z " fill="#E02826" transform="translate(1557,82)"/>
<path d="M0 0 C64.02 0 128.04 0 194 0 C194.33 92.4 194.66 184.8 195 280 C203.20958791 257.71683282 211.41324443 235.43316837 219.54492188 213.12173462 C221.78361936 206.98033549 224.02453319 200.83974447 226.265625 194.69921875 C226.51257614 194.02255535 226.75952728 193.34589195 227.01396179 192.6487236 C231.65774266 179.92577116 236.32417368 167.21120795 241 154.5 C247.51076733 136.79815416 253.9934498 119.08616355 260.46002579 101.36813736 C261.1834973 99.38596661 261.90708335 97.40383771 262.63070679 95.42172241 C267.71793725 81.48682235 272.8008655 67.55037059 277.87388611 53.61029053 C279.74540352 48.46778232 281.61848879 43.3258456 283.4919672 38.18405151 C285.02380632 33.97944456 286.5535154 29.77407073 288.08163452 25.56811047 C288.79802615 23.59749421 289.51550882 21.62727944 290.23348999 19.65724182 C291.10879897 17.25551513 291.98237585 14.8531562 292.85391235 12.45005798 C293.43439835 10.85986595 293.43439835 10.85986595 294.02661133 9.23754883 C294.52877922 7.85712151 294.52877922 7.85712151 295.04109192 6.44880676 C296 4 296 4 298 0 C363.34 0 428.68 0 496 0 C490.384962 14.5990988 490.384962 14.5990988 487.64453125 20.484375 C487.02560421 21.82298392 486.40670921 23.16160766 485.7878418 24.50024414 C485.46713715 25.18990265 485.1464325 25.87956116 484.81600952 26.59011841 C478.4288023 40.33748304 472.25014791 54.16936716 466.1875 68.0625 C460.01771285 82.19262272 453.74895355 96.2732712 447.375 110.3125 C441.49267382 123.27030716 435.64256493 136.24066235 429.875 149.25 C429.55041809 149.98208679 429.22583618 150.71417358 428.89141846 151.46844482 C428.56711853 152.19992737 428.2428186 152.93140991 427.90869141 153.68505859 C427.25425229 155.16114191 426.59979267 156.63721613 425.9453125 158.11328125 C425.62164703 158.8433136 425.29798157 159.57334595 424.96450806 160.32550049 C421.24701221 168.70541679 417.49801695 177.07120268 413.75 185.4375 C407.91976674 198.45283832 402.11719099 211.4802014 396.33166504 224.51547241 C389.80379123 239.22328004 383.25249477 253.91982978 376.64068604 268.59011841 C375.5149422 271.0917948 374.39333482 273.59528515 373.27294922 276.09936523 C370.25593626 282.83444279 367.23376951 289.56152115 364.04330444 296.21661377 C363.13338741 298.11745831 362.23483279 300.02324096 361.33984375 301.93115234 C360.27945471 304.18134552 359.19663252 306.42118047 358.0859375 308.64697266 C355.15923325 314.84916262 355.15923325 314.84916262 355.90625 321.4375 C356.58028835 322.96906587 357.28024706 324.48937847 358 326 C358.72616905 327.89282933 359.43998593 329.79042222 360.14453125 331.69140625 C361.03124023 333.98278408 361.92080747 336.27305692 362.8125 338.5625 C363.32702628 339.88743541 363.84151003 341.21238733 364.35595703 342.53735352 C372.0413999 362.30675418 379.82311969 382.03879723 387.58691406 401.7775116 C390.98906496 410.42742337 394.38806454 419.07856851 397.78515625 427.73046875 C409.62078969 457.87381311 409.62078969 457.87381311 421.5 488 C430.41348641 510.55645092 439.27240872 533.13434212 448.13720703 555.70996094 C450.93325257 562.83034009 453.73014148 569.9503877 456.52734375 577.0703125 C456.98018234 578.22295593 457.43302094 579.37559937 457.89958191 580.56317139 C459.71801368 585.19170061 461.53648191 589.8202155 463.35494995 594.44873047 C468.09960547 606.52529645 472.8439266 618.60199334 477.58648682 630.67938232 C479.36416921 635.20641277 481.14205557 639.73336311 482.91998672 644.26029587 C484.13205136 647.34647735 485.34396241 650.43271894 486.55566406 653.51904297 C487.89359668 656.92686923 489.23191543 660.33454363 490.5703125 663.7421875 C490.96098907 664.73757538 491.35166565 665.73296326 491.75418091 666.7585144 C492.12421234 667.70042633 492.49424377 668.64233826 492.87548828 669.61279297 C493.22661682 670.50899353 493.57774536 671.40519409 493.93951416 672.32855225 C494.66755295 674.16253957 495.40966949 675.99098197 496.16351318 677.81451416 C496.53091614 678.70604187 496.89831909 679.59756958 497.27685547 680.51611328 C497.77377396 681.7037175 497.77377396 681.7037175 498.2807312 682.91531372 C499 685 499 685 499 688 C430.36 688 361.72 688 291 688 C289.15562986 683.69646966 287.52389376 679.79901041 286.15673828 675.39355469 C285.82348038 674.32629654 285.49022247 673.25903839 285.14686584 672.15943909 C284.79160324 671.00854294 284.43634064 669.85764679 284.0703125 668.671875 C283.48339023 666.78722085 282.89646714 664.90256695 282.30951405 663.0179224 C281.68118741 660.99792546 281.05469727 658.97736731 280.42874146 656.95663452 C279.10206425 652.67408208 277.77013984 648.39317296 276.43725586 644.11254883 C275.03784408 639.61766329 273.63862541 635.12271884 272.24101257 630.62727356 C267.80360671 616.35554427 263.33658803 602.09317073 258.862854 587.83279419 C257.54850663 583.64316991 256.23487698 579.4533208 254.92138672 575.26342773 C251.42664203 564.11582928 247.93098797 552.96851605 244.43505859 541.82128906 C241.87300688 533.6518073 239.3113541 525.48220051 236.75 517.3125 C236.53913757 516.63996059 236.32827515 515.96742119 236.11102295 515.2745018 C230.50949492 497.40832161 224.9163673 479.53953036 219.33203125 461.66796875 C218.90877249 460.31342307 218.90877249 460.31342307 218.47696304 458.93151283 C215.69627162 450.03225523 212.91612578 441.13282742 210.13706684 432.23305988 C209.10679144 428.93380159 208.07629918 425.63461105 207.04578209 422.33542824 C206.34871955 420.10346573 205.65198879 417.87139986 204.95527649 415.639328 C201.65883562 405.08575797 198.32948172 394.54335878 195 384 C194.67 484.32 194.34 584.64 194 688 C129.98 688 65.96 688 0 688 C0 460.96 0 233.92 0 0 Z " fill="#28255F" transform="translate(1171,871)"/>
<path d="M0 0 C112.86 0 225.72 0 342 0 C342 55.44 342 110.88 342 168 C293.16 168 244.32 168 194 168 C194 196.38 194 224.76 194 254 C237.89 254 281.78 254 327 254 C327 307.46 327 360.92 327 416 C283.11 416 239.22 416 194 416 C194 447.02 194 478.04 194 510 C242.84 510 291.68 510 342 510 C342 568.74 342 627.48 342 688 C229.14 688 116.28 688 0 688 C0 460.96 0 233.92 0 0 Z " fill="#28255F" transform="translate(1686,871)"/>
<path d="M0 0 C0 59.07 0 118.14 0 179 C-4.07790212 176.96104894 -7.42030177 174.45913595 -11 171.6875 C-43.22239587 147.19011162 -84.88147967 121.63051837 -127 125 C-140.01002041 126.92193483 -150.7236443 131.35774732 -159.30859375 141.625 C-165.78862191 150.72397719 -166.8172066 160.04943162 -166 171 C-161.51083414 191.60689391 -142.6681425 209.10248783 -126.87109375 221.6953125 C-123.75597062 224.19588753 -120.72163801 226.77756635 -117.6875 229.375 C-113.25204083 233.1585731 -108.73375324 236.80507591 -104.125 240.375 C-97.13695854 245.80019582 -90.48398599 251.57114581 -83.83496094 257.40332031 C-82.08257139 258.92815103 -80.31547807 260.43295858 -78.5390625 261.9296875 C-59.31890183 278.1317382 -39.34801523 295.61198035 -23.92578125 315.515625 C-21.73132932 318.34660153 -19.39966179 321.03587664 -17.0625 323.75 C6.22737774 351.76274768 18.73634622 386.04840197 23 422 C23.0942627 422.76562256 23.18852539 423.53124512 23.28564453 424.32006836 C24.27838937 433.54158462 24.24364188 442.79828866 24.25 452.0625 C24.25067474 452.94783417 24.25134949 453.83316833 24.25204468 454.74533081 C24.18812534 507.7452142 9.97382355 560.74653193 -26 601 C-26.45052734 601.50934082 -26.90105469 602.01868164 -27.36523438 602.54345703 C-41.63050897 618.61331743 -57.68460056 631.83905347 -76 643 C-76.58523438 643.36448242 -77.17046875 643.72896484 -77.7734375 644.10449219 C-101.65303071 658.8728214 -129.45271884 667.37613937 -157 672 C-158.24910156 672.22647217 -158.24910156 672.22647217 -159.5234375 672.45751953 C-191.31981723 678.05691999 -227.45305611 677.73352335 -259 671 C-260.5164209 670.68651611 -260.5164209 670.68651611 -262.06347656 670.36669922 C-295.44258382 663.27775423 -344.11270254 647.88729746 -369 623 C-369.09769877 620.54629379 -369.12996241 618.1207683 -369.12025452 615.66661072 C-369.12110894 614.88988134 -369.12196337 614.11315197 -369.12284368 613.31288534 C-369.12450084 610.69025678 -369.11897329 608.0676911 -369.11352539 605.44506836 C-369.11324354 603.57302349 -369.1134012 601.70097852 -369.1139679 599.82893372 C-369.11425597 594.7299724 -369.10835769 589.63103438 -369.10139394 584.5320785 C-369.09516199 579.20958367 -369.09455673 573.88708837 -369.09336853 568.56459045 C-369.09025474 558.47815109 -369.08204072 548.39172251 -369.07201904 538.3052879 C-369.06085937 526.82543621 -369.05534782 515.34558402 -369.05032361 503.86572826 C-369.03985814 480.24381285 -369.02225778 456.62190703 -369 433 C-365.89445411 434.20533458 -363.32801379 435.29609905 -360.7421875 437.40625 C-360.13068848 437.89367676 -359.51918945 438.38110352 -358.88916016 438.88330078 C-357.89215088 439.68356689 -357.89215088 439.68356689 -356.875 440.5 C-320.31432192 469.09243005 -272.36398364 501.42399884 -224 498 C-210.81447377 496.13632138 -198.83847026 490.00432908 -190 480 C-183.28888127 470.4228221 -179.36850976 458.73119173 -181 447 C-187.62159499 421.24935283 -209.10518041 401.8340217 -227.25 383.625 C-227.76951233 383.1027182 -228.28902466 382.5804364 -228.82427979 382.04232788 C-234.12389282 376.72212347 -239.45361282 371.50388089 -245.16308594 366.61865234 C-248.43215777 363.7380109 -251.45086243 360.60965055 -254.5 357.5 C-258.90667734 353.04563017 -263.32765859 348.71812641 -268.109375 344.6640625 C-274.23344986 339.27386438 -279.79600118 333.32382841 -285.08984375 327.12890625 C-287.46190797 324.48519459 -289.97302712 321.99381831 -292.5 319.5 C-296.15299852 315.88494517 -299.69212828 312.22797245 -303.0234375 308.3125 C-304.59129691 306.47816646 -306.18014655 304.67288617 -307.7890625 302.875 C-349.15285871 256.37052331 -370.3085505 204.32214762 -366.71875 141.53515625 C-363.03694834 89.94155189 -339.68587856 43.56289453 -300.9453125 9.453125 C-266.90230967 -18.90099407 -226.07790309 -34.91959132 -182 -39 C-180.83339844 -39.11085938 -179.66679687 -39.22171875 -178.46484375 -39.3359375 C-118.49914421 -44.16451396 -52.38001405 -29.9314366 0 0 Z " fill="#E02826" transform="translate(2445,108)"/>
<path d="M0 0 C0.95582977 0.00054382 1.91165955 0.00108765 2.89645386 0.00164795 C45.03834245 0.11110854 125.37722345 7.93972345 156.8125 39.375 C156.9101134 41.70267014 156.94247765 44.00062019 156.93275452 46.32875061 C156.93403615 47.43259138 156.93403615 47.43259138 156.93534368 48.55873197 C156.93700067 51.04316646 156.93147356 53.52753455 156.92602539 56.01196289 C156.92574354 57.78548684 156.92590121 59.55901091 156.9264679 61.33253479 C156.92675595 66.16291017 156.9208579 70.99326094 156.91389394 75.82363057 C156.90766176 80.86585317 156.90705671 85.90807627 156.90586853 90.95030212 C156.90275481 100.50550227 156.89454088 110.06069103 156.88451904 119.61588615 C156.87335916 130.49115433 156.86784777 141.36642305 156.86282361 152.24169552 C156.8523583 174.61947 156.83475807 196.99723436 156.8125 219.375 C155.37672377 218.42605402 153.9420391 217.47545636 152.5078125 216.52416992 C151.30922607 215.73039192 151.30922607 215.73039192 150.08642578 214.920578 C147.21926349 212.97177958 144.51869214 210.85318909 141.8125 208.6875 C110.96901106 184.55333629 68.00289999 160.32352203 27.5625 165 C15.16249408 167.13014891 3.86697716 172.29774537 -3.5625 182.75 C-9.1226167 191.95508209 -10.35444904 200.62795502 -9.1875 211.375 C-5.40711211 225.33723261 3.96016567 236.23190818 13.8125 246.375 C14.72515625 247.32761719 15.6378125 248.28023437 16.578125 249.26171875 C22.1344781 254.95301186 27.92749597 260.10353451 34.15332031 265.04541016 C37.57066668 267.78391344 40.93619332 270.5861988 44.3125 273.375 C49.05245849 277.28331406 53.79872006 281.18322306 58.5625 285.0625 C67.59989286 292.45673052 76.49651185 299.97392985 85.08203125 307.890625 C87.2332366 309.84794489 89.40549688 311.76586596 91.6015625 313.671875 C95.95679323 317.47150016 100.17420904 321.40610791 104.375 325.375 C105.09107422 326.04789063 105.80714844 326.72078125 106.54492188 327.4140625 C118.47474551 338.66001089 118.47474551 338.66001089 123.125 344.125 C125.06292406 346.38160491 127.01946632 348.59566793 129.0546875 350.765625 C153.39531495 376.73932969 169.09080134 407.7451073 176.5625 442.4375 C176.76149902 443.35781006 176.96049805 444.27812012 177.16552734 445.22631836 C180.29655584 460.6866114 181.19421577 476.13571288 181.125 491.875 C181.12226578 493.17677689 181.12226578 493.17677689 181.11947632 494.50485229 C180.93523344 546.90964736 166.9432701 599.29894782 131.8125 639.375 C131.09707031 640.2 130.38164062 641.025 129.64453125 641.875 C119.88655677 652.92828083 109.64243809 662.62190679 97.8125 671.375 C97.27367188 671.77460937 96.73484375 672.17421875 96.1796875 672.5859375 C87.48619972 678.96687188 78.34343173 684.35836124 68.8125 689.375 C67.85512939 689.88329346 67.85512939 689.88329346 66.87841797 690.40185547 C39.6077211 704.65999731 9.18648029 711.16225199 -21.1875 714.375 C-22.42757812 714.50777344 -23.66765625 714.64054687 -24.9453125 714.77734375 C-83.1892563 719.70983551 -143.74030801 706.0430548 -193.50230408 674.92872429 C-195.67491335 673.67159598 -197.79805506 672.62269497 -200.07148743 671.57602119 C-210.77900065 666.29241089 -210.77900065 666.29241089 -213.10752106 661.46936941 C-214.54465351 655.97257395 -214.19354151 650.33562746 -214.00390625 644.70654297 C-213.99938744 642.82332242 -214.00193747 640.94007373 -214.01098633 639.05686951 C-214.01556151 633.96628392 -213.92179566 628.88178011 -213.80980301 623.79260397 C-213.70949536 618.46647445 -213.70036174 613.14019125 -213.68139648 607.81326294 C-213.63174669 597.73641392 -213.5005702 587.66235602 -213.33980465 577.58673394 C-213.16070472 566.11190435 -213.07293089 554.63693844 -212.99267769 543.16105819 C-212.8256211 519.56416042 -212.54436121 495.96973685 -212.1875 472.375 C-209.33022292 473.76970196 -206.84972297 475.25937108 -204.30859375 477.17578125 C-203.56230713 477.73410645 -202.81602051 478.29243164 -202.04711914 478.86767578 C-201.24781982 479.46821777 -200.44852051 480.06875977 -199.625 480.6875 C-161.28448808 509.16061686 -112.19950301 544.29474426 -61.7109375 536.86328125 C-59.07230576 536.22034704 -56.68956423 535.42425274 -54.1875 534.375 C-52.94033203 533.88193359 -52.94033203 533.88193359 -51.66796875 533.37890625 C-40.12838844 528.25611253 -31.05493853 518.90963174 -26.375 507.1875 C-22.28500848 494.05647459 -24.08876933 483.15246206 -30.25 471.0625 C-34.23810776 463.93730329 -39.02549607 457.65974915 -44.1875 451.375 C-44.61063477 450.84890137 -45.03376953 450.32280273 -45.46972656 449.78076172 C-56.81135618 435.71765691 -69.79335326 422.63033945 -83.48535156 410.86108398 C-86.39053773 408.32467145 -89.0355003 405.54706123 -91.71875 402.78125 C-93.7259076 400.82490652 -95.76144961 398.9987984 -97.88452148 397.17358398 C-101.91372566 393.65873659 -105.73041882 389.97731714 -109.50390625 386.19140625 C-110.16406235 385.53220688 -110.82421844 384.87300751 -111.50437927 384.1938324 C-112.88785506 382.81103165 -114.27009083 381.42698924 -115.65112305 380.04174805 C-117.74481669 377.94269657 -119.84379874 375.8490406 -121.94335938 373.75585938 C-123.29719571 372.40136214 -124.65072175 371.04655469 -126.00390625 369.69140625 C-126.62076797 369.07656876 -127.2376297 368.46173126 -127.8731842 367.82826233 C-131.60963951 364.07198867 -135.15936562 360.19902016 -138.61659241 356.184021 C-141.02632992 353.40902279 -143.54875295 350.7428716 -146.0625 348.0625 C-151.36087207 342.35998685 -156.32612647 336.45578161 -161.1875 330.375 C-162.13139532 329.23320197 -163.07679047 328.09264267 -164.0234375 326.953125 C-199.56150545 283.86689366 -214.59422547 231.45525914 -209.3671875 175.98095703 C-205.75990934 142.39777303 -195.12053003 110.83551518 -175.1875 83.375 C-174.60790527 82.55418945 -174.60790527 82.55418945 -174.01660156 81.71679688 C-162.28807943 65.22018319 -146.93073634 49.74010588 -130.1875 38.375 C-129.54925293 37.93542969 -128.91100586 37.49585938 -128.25341797 37.04296875 C-104.52582469 20.78797208 -77.9739785 9.72273339 -49.75 4.1875 C-48.9650415 4.03249023 -48.18008301 3.87748047 -47.37133789 3.71777344 C-31.63261771 0.81449902 -15.97175193 -0.03450338 0 0 Z " fill="#28255F" transform="translate(2726.1875,857.625)"/>
<path d="M0 0 C1.03463379 0.00215515 2.06926758 0.0043103 3.13525391 0.00653076 C19.29659246 0.06043928 35.0931166 0.62498715 51.0625 3.3125 C52.29274902 3.51649414 53.52299805 3.72048828 54.79052734 3.93066406 C75.0474729 7.38004356 94.79663052 12.08779894 114.0625 19.3125 C114.0625 74.0925 114.0625 128.8725 114.0625 185.3125 C110.92287342 184.05664937 107.93363509 182.81382391 104.90234375 181.359375 C84.00230345 171.50609949 60.55020584 163.45994855 37.0625 165.3125 C35.79664063 165.4053125 34.53078125 165.498125 33.2265625 165.59375 C11.2511497 167.5225785 -8.59957016 175.26366926 -24.9375 190.3125 C-25.55496094 190.85003906 -26.17242188 191.38757812 -26.80859375 191.94140625 C-61.18666529 223.62004493 -69.68591997 280.72700691 -71.83074951 324.66717529 C-73.98526341 378.05699057 -73.19731231 437.62137708 -45.9375 485.3125 C-45.6089502 485.89128906 -45.28040039 486.47007812 -44.94189453 487.06640625 C-32.21341162 509.2806839 -14.10820578 527.05213407 11.02001953 534.09643555 C43.8219018 542.8530416 76.32600167 535.44751012 105.7421875 520.01171875 C109.0625 518.3125 109.0625 518.3125 114.0625 516.3125 C114.0625 573.4025 114.0625 630.4925 114.0625 689.3125 C107.94200784 692.37274608 102.40517738 695.12240536 96.01953125 697.25 C95.29710236 697.49601456 94.57467346 697.74202911 93.83035278 697.99549866 C91.51529362 698.77844899 89.19606285 699.54754265 86.875 700.3125 C85.67606613 700.70935501 85.67606613 700.70935501 84.45291138 701.11422729 C21.00896442 722.01565518 -45.82714094 717.7915259 -105.9375 688.3125 C-140.35113524 670.90150862 -172.85033599 645.55612765 -196.9375 615.3125 C-197.89697755 614.14203087 -198.85798749 612.97281666 -199.8203125 611.8046875 C-254.64489024 544.91569761 -271.90048903 457.64976995 -274.9375 362.3125 C-274.96231445 361.41354004 -274.98712891 360.51458008 -275.01269531 359.58837891 C-277.31308558 263.26441009 -254.21400155 161.36980712 -172.34375 68.58984375 C-166.56689166 62.67587643 -160.43530403 57.41603839 -153.9375 52.3125 C-152.95136719 51.52101563 -151.96523438 50.72953125 -150.94921875 49.9140625 C-121.79356047 26.89452657 -87.80382349 11.16856262 -51.3125 4.0625 C-50.15234375 3.83578613 -50.15234375 3.83578613 -48.96875 3.60449219 C-32.67085034 0.64548827 -16.5289548 -0.06211645 0 0 Z " fill="#28255F" transform="translate(1018.9375,858.6875)"/>
<path d="M0 0 C138.93 0 277.86 0 421 0 C421 55.44 421 110.88 421 168 C383.71 168 346.42 168 308 168 C308 339.6 308 511.2 308 688 C243.98 688 179.96 688 114 688 C114 516.4 114 344.8 114 168 C76.38 168 38.76 168 0 168 C0 112.56 0 57.12 0 0 Z " fill="#28255F" transform="translate(53,871)"/>
<path d="M0 0 C138.93 0 277.86 0 421 0 C421 55.44 421 110.88 421 168 C383.38 168 345.76 168 307 168 C307 339.6 307 511.2 307 688 C243.31 688 179.62 688 114 688 C114 516.4 114 344.8 114 168 C76.38 168 38.76 168 0 168 C0 112.56 0 57.12 0 0 Z " fill="#28255F" transform="translate(2064,871)"/>
<path d="M0 0 C138.93 0 277.86 0 421 0 C421 55.44 421 110.88 421 168 C383.38 168 345.76 168 307 168 C307 339.6 307 511.2 307 688 C243.31 688 179.62 688 114 688 C114 516.4 114 344.8 114 168 C76.38 168 38.76 168 0 168 C0 112.56 0 57.12 0 0 Z " fill="#E02826" transform="translate(2486,82)"/>
<path d="M0 0 C63.69 0 127.38 0 193 0 C193.09935762 95.08829979 193.09935762 95.08829979 193.12702942 142.14811707 C193.12744359 142.85066803 193.12785776 143.553219 193.12828448 144.27705939 C193.13726558 159.54955709 193.14557579 174.82205508 193.15319599 190.09455352 C193.15693763 197.5854153 193.16082734 205.07627701 193.16479492 212.56713867 C193.1651872 213.31252437 193.16557948 214.05791006 193.16598364 214.8258832 C193.17874176 238.93657703 193.20125619 263.04724961 193.22889166 287.15793059 C193.25726568 311.95831284 193.27567394 336.75868336 193.28174497 361.55908156 C193.28260929 365.07109741 193.2835862 368.58311322 193.28463173 372.09512901 C193.284834 372.78626698 193.28503627 373.47740495 193.28524467 374.1894865 C193.28877417 385.26406289 193.30264571 396.33860272 193.3204961 407.41316428 C193.33826664 418.57762283 193.34463607 429.74205396 193.34050413 440.90652821 C193.3385939 446.9431842 193.34139864 452.97973396 193.35761642 459.01637077 C193.53949552 530.34630736 181.7669172 599.88264148 130 653 C96.71848775 686.39357122 47.72323069 702.121935 1.375 702.25 C-42.1665066 702.20418406 -82.65687848 689.08543446 -121.375 670 C-122.0978418 669.64566895 -122.82068359 669.29133789 -123.56542969 668.92626953 C-125.06243564 668.17114556 -126.53444847 667.36473317 -127.97953796 666.51446533 C-130.49165821 665.25488353 -132.49930545 664.56754495 -135.17079163 663.8487854 C-140.57999174 662.05125031 -144.77847141 659.83304551 -148 655 C-151.115213 643.99018745 -150.0289917 631.7904232 -149.72369695 620.46583128 C-149.61701479 615.84048041 -149.60740801 611.21492276 -149.58726501 606.58853149 C-149.53454027 597.83937651 -149.395213 589.09385671 -149.22432369 580.34629881 C-149.0339342 570.3830477 -148.94074792 560.41961765 -148.85550129 550.45499873 C-148.67806956 529.96797431 -148.37929446 509.48421659 -148 489 C-144.81065244 490.55900344 -141.94035186 492.3166507 -139 494.3125 C-124.95802923 503.73089503 -110.94475796 513.06141647 -96 521 C-94.99477295 521.53947266 -94.99477295 521.53947266 -93.96923828 522.08984375 C-74.92437243 532.24228824 -53.13555507 538.53182158 -31.625 532.375 C-21.68003581 528.60638199 -15.10634838 523.42121276 -10 514 C-3.36079278 499.242197 -0.83902701 482.58173575 -0.8613348 466.4743185 C-0.85707147 465.25577536 -0.85707147 465.25577536 -0.85272202 464.01261517 C-0.84443136 461.30335713 -0.84311126 458.59414216 -0.84178162 455.88487244 C-0.83721243 453.91782375 -0.83221188 451.95077602 -0.82681805 449.98372942 C-0.8132682 444.58831813 -0.80582773 439.19291312 -0.79939139 433.79748929 C-0.79137357 427.97549971 -0.77768056 422.15352316 -0.76467896 416.33154297 C-0.74293581 406.24782151 -0.72478341 396.16409873 -0.70907402 386.08036613 C-0.68635571 371.50100371 -0.65821887 356.92165509 -0.62875474 342.34230501 C-0.58101563 318.68792671 -0.53782374 295.03354208 -0.49731445 271.37915039 C-0.45795443 248.40193217 -0.41652945 225.42471918 -0.37231445 202.44750977 C-0.37095192 201.73901694 -0.36958939 201.03052412 -0.36818558 200.30056182 C-0.35449998 193.18546336 -0.34077246 186.07036498 -0.32701423 178.95526666 C-0.29898911 164.46151633 -0.27124375 149.96776547 -0.2436676 135.47401428 C-0.2423994 134.80764265 -0.2411312 134.14127102 -0.23982458 133.45470632 C-0.15519563 88.96981245 -0.07771708 44.48490651 0 0 Z " fill="#E02826" transform="translate(1319,82)"/>
<path d="M0 0 C1.11503906 -0.0515625 2.23007812 -0.103125 3.37890625 -0.15625 C14.23844126 0.8003954 22.72212348 8.92187527 29.95391846 16.29489136 C30.94882717 17.28717723 31.94505602 18.27814091 32.94247031 19.26790822 C35.65389944 21.96603506 38.34645204 24.68231437 41.036062 27.40216827 C43.94927588 30.34145162 46.87997544 33.26321309 49.80851746 36.18721008 C54.8715616 41.24711809 59.92356095 46.31783769 64.96808624 51.3962059 C72.26149219 58.73851002 79.57153901 66.06406125 86.88566777 73.38571538 C98.7537544 85.2669125 110.60839829 97.16142825 122.45458984 109.06445312 C133.95762104 120.62261355 145.46697817 132.17441427 156.98486328 143.71777344 C157.69560254 144.43008904 158.4063418 145.14240464 159.13861862 145.87630557 C162.70446053 149.44997808 166.27042679 153.02352649 169.83645487 156.59701324 C199.3894363 186.21212874 228.92060602 215.84891938 258.4375 245.5 C257.12613092 248.39429107 255.72307574 250.46520871 253.48185349 252.71012211 C252.87342755 253.32438024 252.26500162 253.93863836 251.63813853 254.57151037 C250.96870699 255.23716259 250.29927545 255.90281481 249.60955811 256.58863831 C248.89902196 257.303 248.18848582 258.01736169 247.45641828 258.7533707 C245.06782466 261.15230479 242.67211823 263.54400637 240.27636719 265.93579102 C238.5644106 267.65209382 236.85287281 269.36881445 235.14172363 271.08592224 C230.96893647 275.27073347 226.79140952 279.45077512 222.61143813 283.62840749 C219.20897803 287.0290835 215.8082911 290.43152296 212.40885162 293.83521843 C211.92470115 294.3199641 211.44055067 294.80470976 210.94172896 295.30414469 C209.95801911 296.28906636 208.97431042 297.27398918 207.99060288 298.25891315 C198.75870873 307.50168996 189.52029663 316.73793059 180.27991262 325.97221857 C171.85037521 334.39660127 163.42904485 342.82913298 155.01161632 351.26561309 C146.35454919 359.94212231 137.69186481 368.61298692 129.02319837 377.27790779 C124.16240884 382.13679295 119.30379784 386.99780741 114.45107269 391.864748 C109.87809115 396.45098983 105.29717623 401.02921202 100.71107483 405.60233498 C99.03728121 407.27377759 97.36599211 408.94773299 95.69753265 410.62450027 C86.4056401 419.95928032 77.04170823 428.67594324 66.4375 436.5 C65.21094041 437.41291762 63.98459577 438.32612411 62.75846481 439.23961735 C33.38789319 461.01244563 -0.59865666 474.44222471 -36.5625 480.5 C-37.65377197 480.69480957 -37.65377197 480.69480957 -38.76708984 480.89355469 C-94.55093402 490.49337747 -156.58084762 475.477075 -202.56396484 443.09033203 C-219.80399701 430.74892656 -234.92512252 416.4699631 -249.91015625 401.5234375 C-251.73898364 399.70359819 -253.56787791 397.88382608 -255.39683533 396.06411743 C-259.20337596 392.27395149 -263.00561826 388.47953711 -266.80541992 384.68261719 C-271.17792164 380.3137666 -275.56345312 375.9582933 -279.95492369 371.608518 C-284.21496496 367.38748706 -288.46099481 363.152637 -292.70214653 358.91261673 C-294.49411626 357.12483607 -296.29018224 355.34115102 -298.09050179 353.56177902 C-300.60501377 351.07424486 -303.103102 348.57124919 -305.59790039 346.06396484 C-306.33404068 345.34265884 -307.07018097 344.62135284 -307.82862854 343.87818909 C-313.59019703 338.03450003 -317.83259945 331.79353266 -319.2265625 323.59375 C-319.02676314 305.21220903 -308.12370378 295.9377507 -295.80151367 283.54614258 C-294.97757111 282.71402252 -294.15362854 281.88190247 -293.30471802 281.02456665 C-290.61627065 278.31158928 -287.9239406 275.60251991 -285.23046875 272.89453125 C-283.84368644 271.49976342 -283.84368644 271.49976342 -282.42888832 270.07681847 C-278.54898845 266.17538863 -274.66769632 262.2753528 -270.78269482 258.37900257 C-265.23757311 252.81756173 -259.70120494 247.24771218 -254.17628878 241.66619569 C-250.27312013 237.72441327 -246.36049389 233.79218124 -242.44062215 229.86700934 C-240.1047971 227.52752929 -237.77464306 225.18283597 -235.45198631 222.83027077 C-232.87166289 220.21857715 -230.27628213 217.62283472 -227.67651367 215.03051758 C-226.91022141 214.24781998 -226.14392914 213.46512238 -225.35441589 212.65870667 C-224.64672058 211.95932983 -223.93902527 211.259953 -223.20988464 210.53938293 C-222.29272061 209.61725368 -222.29272061 209.61725368 -221.35702801 208.67649555 C-219.5625 207.5 -219.5625 207.5 -217.4375658 207.72581005 C-215.17256649 208.6609984 -213.92527919 209.8365157 -212.1875 211.5625 C-198.58800827 223.84754271 -179.83288041 230.1708349 -161.60546875 229.75 C-140.82077116 228.04239968 -121.1388971 219.78053678 -107.25390625 203.8515625 C-94.65129892 187.99735497 -88.54427609 169.27292477 -89.77734375 148.9609375 C-91.79181904 131.96260318 -98.08706038 116.29096802 -110.41015625 104.18359375 C-111.5625 102.5 -111.5625 102.5 -111.35179901 100.63586235 C-110.37360969 97.98885822 -109.07910663 96.63911809 -107.08605957 94.64260864 C-105.96759644 93.5114563 -105.96759644 93.5114563 -104.82653809 92.35745239 C-104.0027063 91.5396933 -103.17887451 90.7219342 -102.33007812 89.87939453 C-101.46656738 89.01062683 -100.60305664 88.14185913 -99.71337891 87.24676514 C-97.34247257 84.86490816 -94.96499521 82.49001345 -92.58387184 80.11839533 C-90.08783492 77.62996151 -87.59913535 75.1342069 -85.10925293 72.63961792 C-80.92131968 68.44622395 -76.7270968 64.25919886 -72.52929688 60.07568359 C-67.6914879 55.2541485 -62.86450921 50.42197362 -58.043118 45.5840255 C-53.89482195 41.42205983 -49.74063791 37.26603912 -45.58159208 33.11481559 C-43.10166338 30.6395403 -40.62374903 28.16233973 -38.15113831 25.67975235 C-35.38605257 22.9042919 -32.60866777 20.14133866 -29.83007812 17.37939453 C-29.02244019 16.5656839 -28.21480225 15.75197327 -27.38269043 14.91360474 C-19.50885105 7.12647256 -11.49126066 0.31375456 0 0 Z " fill="#E02826" transform="translate(318.5625,-0.5)"/>
<path d="M0 0 C63.69 0 127.38 0 193 0 C193 227.04 193 454.08 193 688 C129.31 688 65.62 688 0 688 C0 460.96 0 233.92 0 0 Z " fill="#28255F" transform="translate(513,871)"/>
</svg>
